<?xml version="1.0" encoding="utf-8"?>
<!-- Generator: Adobe Illustrator 22.0.0, SVG Export Plug-In . SVG Version: 6.00 Build 0)  -->
<svg version="1.1" id="Layer_1" xmlns="http://www.w3.org/2000/svg" xmlns:xlink="http://www.w3.org/1999/xlink" x="0px" y="0px"
	 viewBox="0 0 360.5 563.6" style="enable-background:new 0 0 360.5 563.6;" xml:space="preserve">
<style type="text/css">
	.st0{
        fill:#ffffff;
    }
        
    #tail{
        transform-origin: bottom;
        animation: tailAnim linear 3s infinite;
        transform-box: fill-box;
    }
    
    #earRight{
        transform-origin: left bottom;
        animation: earRightAnim linear 3s infinite;
        transform-box: fill-box;
    }
    
    #earLeft{
        transform-origin: right bottom;
        animation: earLeftAnim linear 3s infinite;
        transform-box: fill-box;
    }
    
    #tailRight{
        transform-origin: top left;
        animation: tailRightAnim linear 3s infinite;
        transform-box: fill-box;
    }
    
    #TailLeft{
        transform-origin: top right;
        animation: tailLeftAnim linear 3s infinite;
        transform-box: fill-box;
    }
    
    
    
    @-webkit-keyframes earLeftAnim{
        0%{
            transform: rotate(0) rotate(0deg) skew(0);
        }
        90%{
            transform: rotate(0) rotate(0deg) skew(0);
        }
        93%{
            transform: rotate(0deg) rotateY(15deg) skew(0);
        }
        96%{
            transform: rotate(0deg) rotateY(5deg) skew(0);
        }
        99%{
            transform: rotate(0deg) rotateY(15deg) skew(0);
        }
        100%{
            transform: rotate(0deg) rotate(0deg) skew(0);
        }
    }

    @keyframes earLeftAnim{
        0%{
            transform: rotate(0) rotate(0deg) skew(0);
        }
        90%{
            transform: rotate(0) rotate(0deg) skew(0);
        }
        93%{
            transform: rotate(0deg) rotateY(15deg) skew(0);
        }
        96%{
            transform: rotate(0deg) rotateY(5deg) skew(0);
        }
        99%{
            transform: rotate(0deg) rotateY(15deg) skew(0);
        }
        100%{
            transform: rotate(0deg) rotate(0deg) skew(0);
        }
    }
    
    @-webkit-keyframes earRightAnim{
        0%{
            transform: rotate(0) rotate(0deg) skew(0);
        }
        90%{
            transform: rotate(0) rotate(0deg) skew(0);
        }
        93%{
            transform: rotate(0deg) rotateY(-15deg) skew(0);
        }
        96%{
            transform: rotate(0deg) rotateY(-5deg) skew(0);
        }
        99%{
            transform: rotate(0deg) rotateY(-15deg) skew(0);
        }
        100%{
            transform: rotate(0deg) rotate(0deg) skew(0);
        }
    }

    @keyframes earRightAnim{
        0%{
            transform: rotate(0) rotate(0deg) skew(0);
        }
        90%{
            transform: rotate(0) rotate(0deg) skew(0);
        }
        93%{
            transform: rotate(0deg) rotateY(-15deg) skew(0);
        }
        96%{
            transform: rotate(0deg) rotateY(-5deg) skew(0);
        }
        99%{
            transform: rotate(0deg) rotateY(-15deg) skew(0);
        }
        100%{
            transform: rotate(0deg) rotate(0deg) skew(0);
        }
    }
    
    @-webkit-keyframes tailAnim{
        0%{
            transform: rotate(0) rotate(0deg) skew(0);
        }
        33%{
            transform: rotate(0deg) rotate(1deg) skew(5deg, 0deg);
        }
        66%{
            transform: rotate(0deg) rotate(-1deg) skew(5deg, 0deg);
        }
        100%{
            transform: rotate(0deg) rotate(0deg) skew(0);
        }
    }

    @keyframes tailAnim{
        0%{
            transform: rotate(0) rotate(0deg) skew(0);
        }
        33%{
            transform: rotate(0deg) rotate(5deg) skew(5deg, 0deg);
        }
        66%{
            transform: rotate(0deg) rotate(-5deg) skew(5deg, 0deg);
        }
        100%{
            transform: rotate(0deg) rotate(0deg) skew(0);
        }
    }
    
    @-webkit-keyframes tailRightAnim{
        0%{
            transform: rotate(0) skew(0);
        }
        70%{
            transform: rotate(0deg) skew(0deg, -3deg);
        }
        80%{
            transform: rotate(0deg) skew(0deg, 2deg);
        }
        90%{
            transform: rotate(0deg) skew(0deg, -1deg);
        }
        100%{
            transform: rotate(0deg) skew(0);
        }
    }

    @keyframes tailRightAnim{
        0%{
            transform: rotate(0) skew(0);
        }
        70%{
            transform: rotate(0deg) skew(0deg, -3deg);
        }
        80%{
            transform: rotate(0deg) skew(0deg, 2deg);
        }
        90%{
            transform: rotate(0deg) skew(0deg, -1deg);
        }
        100%{
            transform: rotate(0deg) skew(0);
        }
    }
    
    @-webkit-keyframes tailLeftAnim{
        0%{
            transform: translate(1px, 0px)  skew(0);
        }
        70%{
            transform: translate(1px, -1px)  skew(5deg, 0deg);
        }
        80%{
            transform: translate(1px, -1px)  skew(-2deg, 0deg);
        }
        90%{
            transform: translate(1px, -1px)  skew(2deg, 0deg);
        }
        100%{
            transform: translate(1px, 0px)  skew(0);
        }
    }

    @keyframes tailLeftAnim{
        0%{
            transform: translate(1px, 0px)  skew(0);
        }
        70%{
            transform: translate(1px, -1px)  skew(5deg, 0deg);
        }
        80%{
            transform: translate(1px, .5px)  skew(-2deg, 0deg);
        }
        90%{
            transform: translate(1px, -.5px)  skew(2deg, 0deg);
        }
        100%{
            transform: translate(.5px, 0px)  skew(0);
        }
    }
</style>
<g id="textxibux">
	<g id="xibux">
		<polygon class="st0" points="82.4,455.6 101.3,418 84.3,418 73.5,444.8 73.1,444.8 62.5,418 46.2,418 46.2,419.3 64.4,455.6 
			45.1,493.9 62.2,493.9 73.3,466.5 73.6,466.5 84.8,493.9 102.6,493.9 		"/>
		<rect x="109.9" y="418" class="st0" width="14.7" height="76"/>
		<path class="st0" d="M174.4,454.5c3.2-1.4,5.6-3.4,7.2-6.2c1.6-2.8,2.4-6,2.4-9.6c0-6.9-2.2-12.1-6.6-15.5
			c-4.4-3.5-10.6-5.2-18.5-5.2h-21.8v76h25.5c7.8,0,13.9-1.9,18.1-5.6c4.2-3.7,6.3-9.2,6.3-16.5c0-4.3-1-8-3.1-11.2
			C181.8,457.4,178.7,455.4,174.4,454.5z M151.8,429.5h7c3.5,0,6.1,0.9,7.8,2.6c1.7,1.7,2.6,4.4,2.6,8c0,3.2-0.8,5.7-2.5,7.4
			c-1.7,1.7-4.1,2.6-7.3,2.7h-7.7V429.5z M169.8,479.8c-1.6,1.8-4.1,2.7-7.3,2.7h-10.7v-22.2h10.7h0.5c3.2,0.1,5.5,1.1,7,3.1
			c1.5,2,2.2,4.8,2.2,8.4C172.3,475.3,171.5,478,169.8,479.8z"/>
		<path class="st0" d="M235,467.6c0,5.2-1.1,9.2-3.2,11.9c-2.1,2.7-5.1,4.1-8.9,4.1c-3.7,0-6.7-1.4-8.8-4.1
			c-2.2-2.7-3.2-6.7-3.2-11.9V418h-14.7v49.6c0,8.6,2.5,15.3,7.4,20.2c4.9,4.9,11.4,7.3,19.3,7.3c8,0,14.4-2.4,19.4-7.3
			c5-4.8,7.4-11.6,7.4-20.2V418H235V467.6z"/>
		<polygon class="st0" points="312.6,418 295.6,418 284.8,444.8 284.5,444.8 273.8,418 256.8,418 275.7,455.6 256.4,493.9 
			273.5,493.9 284.6,466.5 284.9,466.5 296.1,493.9 313.9,493.9 293.7,455.6 		"/>
	</g>
	<g id="studio">
		<path class="st0" d="M61.2,520.7c-1.4-1-3.4-1.8-6.2-2.7c-2.6-0.8-4.4-1.6-5.3-2.3c-0.8-0.7-1.2-1.6-1.2-2.7
			c0-1.1,0.5-2.1,1.6-2.9c1.1-0.9,2.6-1.3,4.6-1.3c1.9,0,3.3,0.5,4.5,1.5c1.1,1,1.7,2.2,1.7,3.8v0.7h1.5l0.6-0.1l0.2-0.5l0-0.2
			c0-2.4-0.7-4.3-2.3-5.6c-1.6-1.3-3.6-2-6.1-2c-2.4,0-4.4,0.6-6,1.8c-1.7,1.2-2.5,2.9-2.5,4.9c0,2,0.7,3.6,2.2,4.6
			c1.3,1,3.3,1.8,6,2.7c2.6,0.8,4.4,1.7,5.4,2.4c0.9,0.7,1.3,1.5,1.3,2.6c0,1.2-0.6,2.1-1.7,3c-1.2,0.9-2.8,1.3-4.7,1.3
			c-1.9,0-3.6-0.4-5-1.3c-1.3-0.8-2-2.1-2-4v-0.7h-1.5l-0.6,0.1l-0.2,0.5l0,0.2c-0.1,2.6,0.9,4.6,2.8,5.8c1.8,1.2,4,1.8,6.5,1.8
			c2.4,0,4.5-0.6,6.1-1.7c1.7-1.2,2.6-2.9,2.6-4.9C63.5,523.3,62.7,521.7,61.2,520.7z"/>
		<polygon class="st0" points="95.9,509 104.7,509 104.7,531.6 107.1,531.6 107.1,509 115.3,509 115.3,506.6 95.9,506.6 		"/>
		<path class="st0" d="M164.1,522.9c0,2-0.6,3.6-1.8,4.8c-1.2,1.2-2.7,1.8-4.6,1.8c-1.9,0-3.4-0.6-4.6-1.8c-1.2-1.2-1.8-2.8-1.8-4.8
			v-16.3H149v16.3c0,2.8,0.8,5,2.5,6.6c1.6,1.6,3.7,2.4,6.3,2.4c2.5,0,4.7-0.8,6.3-2.4c1.6-1.6,2.5-3.8,2.5-6.6v-16.3h-2.4V522.9z"
			/>
		<path class="st0" d="M210.2,506.6h-7.7v24.9h7.7c2.9,0,5.4-1,7.4-3.1c2-2.1,3-4.7,3-7.9v-2.9c0-3.2-1-5.8-3-7.9
			C215.6,507.7,213.1,506.6,210.2,506.6z M218.3,520.5c0,2.5-0.8,4.6-2.4,6.2c-1.6,1.6-3.4,2.4-5.7,2.4h-5.3V509h5.3
			c2.2,0,4.1,0.8,5.7,2.4c1.6,1.7,2.4,3.7,2.4,6.2V520.5z"/>
		<rect x="256.5" y="506.6" class="st0" width="2.4" height="24.9"/>
		<path class="st0" d="M304.3,506.3c-3,0-5.3,1-7.1,3.1c-1.7,2-2.5,4.7-2.5,8v3.5c0,3.3,0.9,6,2.5,8c1.7,2,4.1,3,7.1,3
			c3,0,5.3-1,7-3c1.7-2,2.5-4.7,2.5-8v-3.5c0-3.3-0.9-6-2.5-8C309.6,507.3,307.2,506.3,304.3,506.3z M311.5,520.8
			c0,2.7-0.6,4.9-1.9,6.4c-1.2,1.5-3,2.3-5.3,2.3c-2.3,0-4.1-0.7-5.3-2.3c-1.3-1.6-1.9-3.7-1.9-6.4v-3.5c0-2.7,0.6-4.8,1.9-6.4
			c1.2-1.5,3-2.3,5.3-2.3c2.3,0,4.1,0.7,5.3,2.3c1.3,1.6,1.9,3.7,1.9,6.4V520.8z"/>
	</g>
</g>
<g id="body">
	<path id="earLeft" class="st0" d="M126.9,351.7c-2-2.3-4.3-4.4-6.7-6.3c-4.9-3.7-10.5-6.4-16.4-8.2c-2.7-0.8-5.5-1.4-8.4-1.7
		c-3.9-3.7-3.2-10.5-3.2-10.5c-1,5.9-9.5,10.5-9.5,10.5c-0.1,0-0.1,0-0.2,0c-0.5,0.1-1,0.1-1.4,0.2c-0.9,0.1-1.9,0.3-2.8,0.5
		c-0.6,0.1-1.2,0.3-1.8,0.4c-0.6,0.1-1.1,0.3-1.7,0.5c-1.2,0.3-2.4,0.6-3.5,1.1c-1.5,0.6-3,1.1-4.5,1.9c-0.2,0.1-0.4,0.2-0.6,0.3
		c-0.1,0.1-0.3,0.1-0.4,0.2c0.3-1.8,0.9-5.2,1.6-6.7c-1.4,1.7-5.5,6.4-7.7,10.2c-3.3,2.1-6.4,4.6-9.3,7.5c-4.8,4.9-8.7,11-10.8,17.8
		c-2,6.8-2.8,14-1.8,21.1c0.7,5.3,2.4,10.5,4.9,15.2h19.3c0.1-1.5-0.1-3-0.8-4.5l-0.1-0.3c-1.9-4.3-3.4-8.7-4.1-13.2
		c-0.3-2.3-0.6-4.6-0.5-6.9c0-0.6,0-1.2,0-1.7l0.2-1.7l0.1-1.7c0.1-0.6,0.2-1.1,0.3-1.7c0.8-4.6,2.2-9.3,4.4-13.8
		c2.2-4.5,5.5-8.8,9.8-11.9c8.5-6.4,20.2-9,31.1-6.5c2.7,0.6,5.4,1.5,7.9,2.7c2.5,1.3,4.9,2.7,7.1,4.5c2.2,1.7,4.3,3.6,6.2,5.7
		c0.2,0.2,0.4,0.5,0.6,0.7c1.2-0.7,2.4-1.4,3.6-2C127.6,352.6,127.2,352.1,126.9,351.7z"/>
	<path id="earRight" class="st0" d="M308.3,351.5c-2.7-2.7-5.7-5.1-8.8-7.2c-1.5-3.4-0.3-5.3-0.3-5.3s2.5-1.8-0.3,0
		c-1.1,0.7-3.9,1-6.8,1.1c0,0-0.1,0-0.1-0.1c-1.4-0.8-3-1.3-4.5-1.9c-1.5-0.6-3.1-1-4.6-1.4c-1.5-0.5-3.1-0.7-4.7-1
		c-1.5-0.4-3.1-0.4-4.7-0.5c-6.3-0.5-12.6,0.1-18.5,1.9c-5.9,1.8-11.5,4.5-16.4,8.2c-2.4,1.9-4.7,3.9-6.7,6.3
		c-1.8-1.9-3.5-3.9-5.1-5.9l-1.8-2.4c-0.6-0.8-1-1.6-1.6-2.4l-1.5-2.4l-1.2-2.7l-2.2-4.9l-3.5,4.5l-3.2,4.1c-1,1.2-1.9,2.1-2.7,2.5
		c-0.4,0.2-0.6,0.2-1,0.2c-0.5,0-1.1,0-1.9-0.1c-0.7-0.1-1.4-0.2-2.1-0.3c4.2,1,8.2,2.2,12.1,3.6c0.5-0.6,0.9-1.1,1.3-1.7
		c0.1-0.1,0.1-0.2,0.2-0.3l0.7,0.9c0.7,0.9,1.3,1.8,2.1,2.6l0,0c6.5,2.7,12.6,5.9,18.2,9.6c0.3-0.1,0.6-0.3,0.9-0.4l1.7-0.9l3.5-1.9
		c0.4-0.2,0.7-0.4,1.1-0.6c0.1,0.6,0.2,1.3,0.3,1.9c0.2,1.5,0.6,3.1,0.9,4.6c0.3,1.4,0.7,2.8,1.2,4.2c1.3,1.1,2.6,2.1,3.9,3.2
		c-0.9-2.6-1.7-5.3-2.2-8c-0.6-2.9-0.8-5.8-1.1-8.9l-0.2-2.5l-2.3,1.2c-1.1,0.6-2.2,1.3-3.4,1.8l-3.4,1.6l-1.7,0.8
		c-0.6,0.2-1.2,0.4-1.7,0.6c1.5-1.6,3.2-3.1,4.9-4.4c2.2-1.7,4.6-3.2,7.1-4.5c2.5-1.3,5.2-2.1,7.9-2.7c10.9-2.5,22.7,0.1,31.1,6.5
		c4.3,3.2,7.6,7.4,9.8,11.9c2.2,4.5,3.6,9.2,4.4,13.8c0.1,0.6,0.2,1.1,0.3,1.7l0.1,1.7l0.2,1.7c0,0.6,0,1.2,0,1.7
		c0.2,2.3-0.2,4.6-0.5,6.9c-0.7,4.6-2.1,8.9-4.1,13.2l-0.1,0.3c-0.6,1.4-0.9,3-0.8,4.5H316c2.5-4.7,4.2-9.9,4.9-15.2
		c1-7.1,0.3-14.3-1.8-21.1C317,362.5,313.2,356.3,308.3,351.5z"/>
	<g id="head">
		<path class="st0" d="M250,367.9l0.1,0.3l0.2,0.2c3.1,2.6,6.3,5.1,9.2,7.8c2.9,2.7,5.8,5.6,8.4,8.7c5.3,6.1,9.9,12.7,13.9,19.8
			c0.1,0.2,0.4,0.3,0.6,0.2c0.2-0.1,0.3-0.4,0.2-0.6c-3.8-7.2-8.3-14-13.5-20.4c-2.6-3.2-5.3-6.2-8.2-9.1c-2.8-2.8-5.8-5.4-8.7-8.1
			c0-0.1-0.1-0.2-0.1-0.3c-1.3-1.1-2.6-2.2-3.9-3.2C248.7,364.9,249.3,366.4,250,367.9z"/>
		<path class="st0" d="M76.9,404.9c0.2,0.1,0.5,0,0.6-0.2c6.8-12.1,15.6-23.2,26.3-32c5.2-4.5,11-8.3,17-11.8c3-1.6,6-3.3,9.2-4.6
			c1.6-0.7,3.1-1.5,4.7-2l4.9-1.7c1.6-0.6,3.3-1,4.9-1.5c1.7-0.4,3.3-1,5-1.3c3.4-0.7,6.7-1.4,10.1-1.7c6.7-1,13.5-1.1,20.3-1.2
			c3.4,0.1,6.8,0.2,10.1,0.6c1.7,0.2,3.4,0.3,5,0.5l5.3,0.8c1.8,0.2,3.5,0.5,5.3,0.7c0.9,0.1,2,0.1,3.3,0c1.3-0.1,2.8-0.6,3.9-1.3
			c1.5-0.9,2.6-2,3.5-3.1c-3.9-1.4-8-2.6-12.1-3.6c-1-0.2-2-0.4-3-0.6l-5.1-0.9c-0.7-0.1-1.4-0.2-2.1-0.3c0,0,0,0,0-0.1
			c-6.2-0.8-12.6-0.9-19.3-0.4c-1.3,0.1-2.5,0.2-3.8,0.3c-0.5,0.1-1.1,0.1-1.6,0.2c-1.2,0.1-2.3,0.3-3.4,0.5
			c-0.4,0.1-0.7,0.1-1.1,0.2c-9.3,1.5-18.3,4.2-26.9,7.8c-3.4,1.4-6.8,3-10,4.8c0,0-0.1-0.1-0.1-0.1c-1.2,0.6-2.4,1.3-3.6,2
			c0,0,0.1,0.1,0.1,0.1c-1.8,1-3.5,2-5.3,3.1c-1.7,1.1-3.4,2.2-5,3.4c-10.6,7.6-19.4,16.5-26.2,25.2l-2.4,3.2
			c-0.3,0.5-0.7,0.9-1,1.4l-2.5,3.8l-1.1,1.6c-0.3,0.5-0.6,0.9-0.8,1.4l-0.8,1.5l-1.2,2.2c-0.5,0.9-1,1.8-1.4,2.7
			C76.7,404.8,76.8,404.9,76.9,404.9z"/>
		<path class="st0" d="M227.2,353.8c1.6,1.4,3.2,2.8,4.8,4.2l1,0.8l1.1-0.4c1.2-0.5,2.5-0.9,3.7-1.5c0.3-0.1,0.6-0.3,0.9-0.4
			c-5.7-3.6-11.7-6.9-18.2-9.6l2.2,2.4C224,350.8,225.6,352.3,227.2,353.8z"/>
	</g>
	<g id="tail">
		<path id="TailLeft" class="st0" d="M167.3,32.5c-9.8,0.6-19.7,2.2-29.2,4.9c-9.5,2.7-18.7,6.5-27.4,11.3
			c-17.3,9.7-32,23.3-44.5,38.4c-0.8,0.9-1.6,1.9-2.3,2.9c-0.8,1-1.5,1.9-2.3,3c-1.5,2.1-2.7,4.1-4.1,6.2c-1.3,2.1-2.6,4.2-3.8,6.3
			c-1.2,2.1-2.5,4.2-3.7,6.5c-4.4,8.8-8.1,18-10.7,27.6c-2.6,9.5-4.1,19.5-4.1,29.5c0.1,10,1.8,20,5.4,29.5c3.7,9.5,9.6,18,16.9,25
			c7.3,7,16,12.5,25.4,16.2c9.4,3.7,19.5,5.8,29.8,5.6c10.2-0.2,20.5-2.5,29.7-7.4c9.2-4.8,17.2-12.3,22.2-21.7
			c2.5-4.7,4.2-9.7,5.3-14.9c1.1-5.1,1.5-10.7,0.6-16.3c-0.4-2.8-1.2-5.5-2.3-8.2c-1.1-2.7-2.5-5.3-4.4-7.7
			c-1.9-2.4-4.1-4.6-6.8-6.4c-2.7-1.8-5.6-3.1-8.5-4c-5.9-1.8-12.1-2.2-18.4-1.1c-5.7,0.9-11.1,3.4-15.8,6.8
			c-4.3,3.1-9.1,7.5-9.9,13c-1,6.9,3.7,13.4,10.7,14.4c4.1,0.6,8.4-0.9,11.2-4c2-2.2,2.3-5.1,3.6-7.7c2.8-5.4,9.7-7.5,15.5-7.1
			c3.6,0.3,6.7,1.4,9.4,3.9c1.3,1.3,2.5,2.8,3.5,4.5c1,1.7,1.7,3.6,2.3,5.6c1.1,3.9,1.2,8.3,0.6,12.7c-0.5,4.4-1.9,8.7-3.8,12.7
			c-3.9,8-10.5,14.5-18.5,18.8c-7.9,4.4-17.1,6.7-26.3,7.1c-9.2,0.3-18.6-1.3-27.3-4.6c-8.7-3.3-16.8-8.2-23.7-14.6
			c-6.8-6.3-12.4-14.1-15.8-22.7c-3.4-8.7-5.3-18.1-5.4-27.5c-0.2-9.5,1.2-18.9,3.6-28.2c2.5-9.2,6-18.2,10.1-26.8
			c1-2,2.2-4.1,3.5-6.2c1.2-2.1,2.5-4.1,3.8-6.2c1.3-2,2.6-4.1,3.9-6c0.6-0.9,1.4-1.8,2.2-2.8c0.8-0.9,1.5-1.9,2.3-2.8
			c12.2-14.8,26.5-28.1,43.3-37.4c8.4-4.6,17.2-8.3,26.5-10.8c9.2-2.5,18.7-4,28.3-4.5c4.2-0.2,8.4-0.3,12.6-0.3v-4.8
			C176,32.2,171.7,32.3,167.3,32.5z"/>
		<path id="tailRight" class="st0" d="M325.8,174.5c-0.5-19.9-5.1-39.6-13.3-57.7c-4.1-9-9.2-17.7-15.3-25.5
			c-6-7.9-12.9-15.1-20.4-21.6c-14.9-13-32.3-23.2-50.9-29.8c-9.3-3.3-19-5.6-28.9-6.7c-5.6-0.6-11.1-0.9-16.6-0.9V37
			c5.4,0.1,10.8,0.4,16.1,1c9.5,1.1,18.8,3.4,27.8,6.6c18,6.5,34.6,16.5,48.9,29.2c14.3,12.7,26.1,28,33.8,45.5
			c7.7,17.4,11.9,36.3,12.2,55.3c0.2,18.9-3.5,38-12.3,54.5c-8.8,16.5-22.6,29.9-38.5,40.1c-7.9,5.2-16.3,9.8-24.9,14l-6.5,3.2
			c-2.3,1.1-4.5,2.2-6.7,3.4c-4.4,2.4-8.8,5-13,7.8c-8.5,5.6-16.4,12-23.7,19.3c-6.9,6.8-15.6,18.5-20.9,26.8
			c6.7-0.5,13.1-0.3,19.3,0.4c0.5-0.8,3.4-5.6,3.9-6.4c2.5-3.7,5.4-7.3,8.4-10.8c6-7,12.9-13.3,20.3-18.9c3.7-2.8,7.6-5.4,11.6-7.9
			c2-1.2,4-2.4,6.1-3.5l6.4-3.5c8.6-4.8,17.1-9.9,25.3-15.7c8.1-5.8,15.8-12.3,22.7-19.7c6.9-7.4,12.8-15.8,17.3-24.8
			C322.7,214.6,326.4,194.3,325.8,174.5z"/>
	</g>
</g>
<g>
</g>
<g>
</g>
<g>
</g>
<g>
</g>
<g>
</g>
<g>
</g>
<g>
</g>
<g>
</g>
<g>
</g>
<g>
</g>
<g>
</g>
<g>
</g>
<g>
</g>
<g>
</g>
<g>
</g>
</svg>
