{
    "asset" : {
        "generator" : "Khronos glTF Blender I/O v1.0.5",
        "version" : "2.0"
    },
    "scene" : 0,
    "scenes" : [
        {
            "name" : "Particles",
            "nodes" : [
                0
            ]
        }
    ],
    "nodes" : [
        {
            "mesh" : 0,
            "name" : "Plane",
            "rotation" : [
                -0.10041781514883041,
                -0.11865247040987015,
                -0.04905800148844719,
                0.986626148223877
            ],
            "translation" : [
                0,
                4.799999713897705,
                0
            ]
        }
    ],
    "animations" : [
        {
            "channels" : [
                {
                    "sampler" : 0,
                    "target" : {
                        "node" : 0,
                        "path" : "translation"
                    }
                },
                {
                    "sampler" : 1,
                    "target" : {
                        "node" : 0,
                        "path" : "scale"
                    }
                },
                {
                    "sampler" : 2,
                    "target" : {
                        "node" : 0,
                        "path" : "rotation"
                    }
                }
            ],
            "name" : "PlaneAction",
            "samplers" : [
                {
                    "input" : 4,
                    "interpolation" : "STEP",
                    "output" : 5
                },
                {
                    "input" : 4,
                    "interpolation" : "STEP",
                    "output" : 6
                },
                {
                    "input" : 7,
                    "interpolation" : "LINEAR",
                    "output" : 8
                }
            ]
        }
    ],
    "materials" : [
        {
            "alphaMode" : "BLEND",
            "doubleSided" : true,
            "emissiveFactor" : [
                1,
                0.37382540106773376,
                0.2658706605434418
            ],
            "name" : "Dust",
            "pbrMetallicRoughness" : {
                "baseColorTexture" : {
                    "index" : 0,
                    "texCoord" : 0
                },
                "metallicFactor" : 0,
                "roughnessFactor" : 0.5
            }
        }
    ],
    "meshes" : [
        {
            "name" : "Plane.006",
            "primitives" : [
                {
                    "attributes" : {
                        "POSITION" : 0,
                        "NORMAL" : 1,
                        "TEXCOORD_0" : 2
                    },
                    "indices" : 3,
                    "material" : 0
                }
            ]
        }
    ],
    "textures" : [
        {
            "source" : 0
        }
    ],
    "images" : [
        {
            "bufferView" : 4,
            "mimeType" : "image/png",
            "name" : "dust"
        }
    ],
    "accessors" : [
        {
            "bufferView" : 0,
            "componentType" : 5126,
            "count" : 324,
            "max" : [
                14.748152732849121,
                4.713874340057373,
                6.635522842407227
            ],
            "min" : [
                -12.567282676696777,
                -4.668447494506836,
                -9.90401840209961
            ],
            "type" : "VEC3"
        },
        {
            "bufferView" : 1,
            "componentType" : 5126,
            "count" : 324,
            "type" : "VEC3"
        },
        {
            "bufferView" : 2,
            "componentType" : 5126,
            "count" : 324,
            "type" : "VEC2"
        },
        {
            "bufferView" : 3,
            "componentType" : 5123,
            "count" : 486,
            "type" : "SCALAR"
        },
        {
            "bufferView" : 5,
            "componentType" : 5126,
            "count" : 1,
            "max" : [
                17.583333333333332
            ],
            "min" : [
                17.583333333333332
            ],
            "type" : "SCALAR"
        },
        {
            "bufferView" : 6,
            "componentType" : 5126,
            "count" : 1,
            "type" : "VEC3"
        },
        {
            "bufferView" : 7,
            "componentType" : 5126,
            "count" : 1,
            "type" : "VEC3"
        },
        {
            "bufferView" : 8,
            "componentType" : 5126,
            "count" : 500,
            "max" : [
                20.833333333333332
            ],
            "min" : [
                0.041666666666666664
            ],
            "type" : "SCALAR"
        },
        {
            "bufferView" : 9,
            "componentType" : 5126,
            "count" : 500,
            "type" : "VEC4"
        }
    ],
    "bufferViews" : [
        {
            "buffer" : 0,
            "byteLength" : 3888,
            "byteOffset" : 0
        },
        {
            "buffer" : 0,
            "byteLength" : 3888,
            "byteOffset" : 3888
        },
        {
            "buffer" : 0,
            "byteLength" : 2592,
            "byteOffset" : 7776
        },
        {
            "buffer" : 0,
            "byteLength" : 972,
            "byteOffset" : 10368
        },
        {
            "buffer" : 0,
            "byteLength" : 4500,
            "byteOffset" : 11340
        },
        {
            "buffer" : 0,
            "byteLength" : 4,
            "byteOffset" : 15840
        },
        {
            "buffer" : 0,
            "byteLength" : 12,
            "byteOffset" : 15844
        },
        {
            "buffer" : 0,
            "byteLength" : 12,
            "byteOffset" : 15856
        },
        {
            "buffer" : 0,
            "byteLength" : 2000,
            "byteOffset" : 15868
        },
        {
            "buffer" : 0,
            "byteLength" : 8000,
            "byteOffset" : 17868
        }
    ],
    "buffers" : [
        {
            "byteLength" : 25868,
            "uri" : "data:application/octet-stream;base64,"
        }
    ]
}
