{
  "asset": {
    "generator": "Khronos glTF Blender I/O v1.0.5",
    "version": "2.0"
  },
  "scene": 0,
  "scenes": [
    {
      "name": "WineMobile",
      "nodes": [0, 1, 2, 3, 4, 5, 6, 7, 8, 9, 10, 11, 12]
    }
  ],
  "nodes": [
    {
      "mesh": 0,
      "name": "Barrel_low",
      "rotation": [0.7071068286895752, 0, 0, 0.7071067094802856],
      "translation": [4.9877824783325195, 0.2782022953033447, 9.990575790405273]
    },
    {
      "mesh": 1,
      "name": "rack",
      "rotation": [0.7071068286895752, 0, 0, 0.7071067094802856],
      "translation": [4.122930526733398, -1.4182459115982056, 9.539346694946289]
    },
    {
      "mesh": 2,
      "name": "wall_2",
      "rotation": [0.7071068286895752, 0, 0, 0.7071067094802856],
      "scale": [1, 1, 0.4420112371444702],
      "translation": [
        -15.97966194152832,
        5.549334526062012,
        -0.026970122009515762
      ]
    },
    {
      "mesh": 3,
      "name": "Lights",
      "rotation": [0.7071068286895752, 0, 0, 0.7071067690849304],
      "scale": [0.3136681318283081, 0.3136681616306305, 0.3136681616306305],
      "translation": [0, 13.28610610961914, 5.059376239776611]
    },
    {
      "mesh": 4,
      "name": "arch",
      "rotation": [0.7071068286895752, 0, 0, 0.7071067094802856],
      "translation": [
        -14.972070693969727,
        5.458566188812256,
        0.05149867758154869
      ]
    },
    {
      "mesh": 5,
      "name": "vigas",
      "rotation": [0.7071068286895752, 0, 0, 0.7071067094802856],
      "scale": [0.17697674036026, 1, 1],
      "translation": [4.503424644470215, 12.6112060546875, 0]
    },
    {
      "mesh": 6,
      "name": "Techo",
      "rotation": [0.7071068286895752, 0, 0, 0.7071067094802856],
      "translation": [3.4596855640411377, 12.435653686523438, 0]
    },
    {
      "mesh": 7,
      "name": "Suelo",
      "rotation": [0.7071068286895752, 0, 0, 0.7071067094802856],
      "scale": [30.65931510925293, 16.350984573364258, 30.659318923950195],
      "translation": [0, -1.5573590993881226, 0.6662285923957825]
    },
    {
      "mesh": 8,
      "name": "PAred.001",
      "rotation": [0.5, 0.5000000596046448, -0.5, 0.4999999403953552],
      "translation": [
        -27.644031524658203,
        -0.16602367162704468,
        -3.639525890350342
      ]
    },
    {
      "mesh": 9,
      "name": "PAred",
      "rotation": [0.7071068286895752, 0, 0, 0.7071067094802856],
      "translation": [
        -4.769955635070801,
        -0.7017619013786316,
        -13.940376281738281
      ]
    },
    {
      "mesh": 10,
      "name": "Bases",
      "rotation": [0.7071068286895752, 0, 0, 0.7071067094802856],
      "translation": [8.631095886230469, 4.944066047668457, 11.753158569335938]
    },
    {
      "mesh": 11,
      "name": "Light_gradient",
      "rotation": [0.7071068286895752, 0, 0, 0.7071067094802856],
      "translation": [
        0.043289586901664734,
        10.526069641113281,
        5.219486236572266
      ]
    },
    {
      "mesh": 12,
      "name": "Light_gradient.001",
      "rotation": [0.7071068286895752, 0, 0, 0.7071067094802856],
      "scale": [1.4316096305847168, 2.375372886657715, 1.4316097497940063],
      "translation": [
        -18.508499145507812,
        13.495585441589355,
        -0.08527778089046478
      ]
    }
  ],
  "materials": [
    {
      "doubleSided": true,
      "name": "barrel",
      "pbrMetallicRoughness": {
        "baseColorTexture": {
          "index": 0,
          "texCoord": 0
        },
        "metallicFactor": 0,
        "roughnessFactor": 0.5
      }
    },
    {
      "doubleSided": true,
      "name": "mADERA",
      "pbrMetallicRoughness": {
        "baseColorTexture": {
          "index": 1,
          "texCoord": 0
        },
        "metallicFactor": 0,
        "roughnessFactor": 0.5
      }
    },
    {
      "doubleSided": true,
      "name": "PAred",
      "pbrMetallicRoughness": {
        "baseColorTexture": {
          "index": 2,
          "texCoord": 0
        },
        "metallicFactor": 0,
        "roughnessFactor": 0.5
      }
    },
    {
      "doubleSided": true,
      "name": "Metal",
      "pbrMetallicRoughness": {
        "baseColorFactor": [
          0.8458336591720581,
          0.20533454418182373,
          0.06317493319511414,
          1
        ],
        "metallicFactor": 0.7681818008422852,
        "roughnessFactor": 0.26363635063171387
      }
    },
    {
      "doubleSided": true,
      "name": "Suelo",
      "pbrMetallicRoughness": {
        "baseColorTexture": {
          "index": 3,
          "texCoord": 0
        },
        "metallicFactor": 0,
        "roughnessFactor": 0
      }
    },
    {
      "alphaMode": "BLEND",
      "doubleSided": true,
      "name": "Ligh_gradient",
      "pbrMetallicRoughness": {
        "baseColorTexture": {
          "index": 4,
          "texCoord": 0
        },
        "metallicFactor": 0,
        "roughnessFactor": 0.5
      }
    }
  ],
  "meshes": [
    {
      "name": "Plane.014",
      "primitives": [
        {
          "attributes": {
            "POSITION": 0,
            "NORMAL": 1,
            "TEXCOORD_0": 2
          },
          "indices": 3,
          "material": 0
        }
      ]
    },
    {
      "name": "Plane.003",
      "primitives": [
        {
          "attributes": {
            "POSITION": 4,
            "NORMAL": 5,
            "TEXCOORD_0": 6
          },
          "indices": 7,
          "material": 1
        }
      ]
    },
    {
      "name": "Plane.002",
      "primitives": [
        {
          "attributes": {
            "POSITION": 8,
            "NORMAL": 9,
            "TEXCOORD_0": 10
          },
          "indices": 11,
          "material": 2
        }
      ]
    },
    {
      "name": "Plane.012",
      "primitives": [
        {
          "attributes": {
            "POSITION": 12,
            "NORMAL": 13,
            "TEXCOORD_0": 14
          },
          "indices": 15,
          "material": 3
        }
      ]
    },
    {
      "name": "Plane.008",
      "primitives": [
        {
          "attributes": {
            "POSITION": 16,
            "NORMAL": 17,
            "TEXCOORD_0": 18
          },
          "indices": 19,
          "material": 2
        }
      ]
    },
    {
      "name": "Plane.005",
      "primitives": [
        {
          "attributes": {
            "POSITION": 20,
            "NORMAL": 21,
            "TEXCOORD_0": 22
          },
          "indices": 23,
          "material": 1
        }
      ]
    },
    {
      "name": "Plane.007",
      "primitives": [
        {
          "attributes": {
            "POSITION": 24,
            "NORMAL": 25,
            "TEXCOORD_0": 26
          },
          "indices": 27,
          "material": 1
        }
      ]
    },
    {
      "name": "Plane",
      "primitives": [
        {
          "attributes": {
            "POSITION": 28,
            "NORMAL": 29,
            "TEXCOORD_0": 30
          },
          "indices": 31,
          "material": 4
        }
      ]
    },
    {
      "name": "Plane.011",
      "primitives": [
        {
          "attributes": {
            "POSITION": 32,
            "NORMAL": 33,
            "TEXCOORD_0": 34
          },
          "indices": 35,
          "material": 2
        }
      ]
    },
    {
      "name": "Plane.004",
      "primitives": [
        {
          "attributes": {
            "POSITION": 36,
            "NORMAL": 37,
            "TEXCOORD_0": 38
          },
          "indices": 39,
          "material": 2
        }
      ]
    },
    {
      "name": "Plane.001",
      "primitives": [
        {
          "attributes": {
            "POSITION": 40,
            "NORMAL": 41,
            "TEXCOORD_0": 42
          },
          "indices": 43,
          "material": 2
        }
      ]
    },
    {
      "name": "Plane.009",
      "primitives": [
        {
          "attributes": {
            "POSITION": 44,
            "NORMAL": 45,
            "TEXCOORD_0": 46
          },
          "indices": 47,
          "material": 5
        }
      ]
    },
    {
      "name": "Plane.010",
      "primitives": [
        {
          "attributes": {
            "POSITION": 48,
            "NORMAL": 49,
            "TEXCOORD_0": 50
          },
          "indices": 35,
          "material": 5
        }
      ]
    }
  ],
  "textures": [
    {
      "source": 0
    },
    {
      "source": 1
    },
    {
      "source": 2
    },
    {
      "source": 3
    },
    {
      "source": 4
    }
  ],
  "images": [
    {
      "bufferView": 4,
      "mimeType": "image/png",
      "name": "Image_1"
    },
    {
      "bufferView": 9,
      "mimeType": "image/png",
      "name": "Image_2"
    },
    {
      "bufferView": 14,
      "mimeType": "image/png",
      "name": "Image_5"
    },
    {
      "bufferView": 35,
      "mimeType": "image/png",
      "name": "Image_8"
    },
    {
      "bufferView": 52,
      "mimeType": "image/png",
      "name": "Image_9"
    }
  ],
  "accessors": [
    {
      "bufferView": 0,
      "componentType": 5126,
      "count": 6948,
      "max": [0.5436629056930542, 1.6177692413330078, 1.823665738105774],
      "min": [-6.492681980133057, -21.49592399597168, -9.096349716186523],
      "type": "VEC3"
    },
    {
      "bufferView": 1,
      "componentType": 5126,
      "count": 6948,
      "type": "VEC3"
    },
    {
      "bufferView": 2,
      "componentType": 5126,
      "count": 6948,
      "type": "VEC2"
    },
    {
      "bufferView": 3,
      "componentType": 5123,
      "count": 6948,
      "type": "SCALAR"
    },
    {
      "bufferView": 5,
      "componentType": 5126,
      "count": 3912,
      "max": [1.5124702453613281, 4.089749336242676, 0.1443299651145935],
      "min": [-5.7776360511779785, -23.065444946289062, -8.336284637451172],
      "type": "VEC3"
    },
    {
      "bufferView": 6,
      "componentType": 5126,
      "count": 3912,
      "type": "VEC3"
    },
    {
      "bufferView": 7,
      "componentType": 5126,
      "count": 3912,
      "type": "VEC2"
    },
    {
      "bufferView": 8,
      "componentType": 5123,
      "count": 4536,
      "type": "SCALAR"
    },
    {
      "bufferView": 10,
      "componentType": 5126,
      "count": 102,
      "max": [13.544439315795898, 14.543879508972168, 16.96022605895996],
      "min": [13.544437408447266, -14.543879508972168, -24.036046981811523],
      "type": "VEC3"
    },
    {
      "bufferView": 11,
      "componentType": 5126,
      "count": 102,
      "type": "VEC3"
    },
    {
      "bufferView": 12,
      "componentType": 5126,
      "count": 102,
      "type": "VEC2"
    },
    {
      "bufferView": 13,
      "componentType": 5123,
      "count": 102,
      "type": "SCALAR"
    },
    {
      "bufferView": 15,
      "componentType": 5126,
      "count": 750,
      "max": [2.284829616546631, 2.2848305702209473, 10.057942390441895],
      "min": [-2.2848317623138428, -34.215877532958984, -0.8936398029327393],
      "type": "VEC3"
    },
    {
      "bufferView": 16,
      "componentType": 5126,
      "count": 750,
      "type": "VEC3"
    },
    {
      "bufferView": 17,
      "componentType": 5126,
      "count": 750,
      "type": "VEC2"
    },
    {
      "bufferView": 18,
      "componentType": 5123,
      "count": 756,
      "type": "SCALAR"
    },
    {
      "bufferView": 19,
      "componentType": 5126,
      "count": 214,
      "max": [12.709966659545898, 7.998468399047852, 7.496610164642334],
      "min": [12.052709579467773, -7.998468399047852, -6.889791488647461],
      "type": "VEC3"
    },
    {
      "bufferView": 20,
      "componentType": 5126,
      "count": 214,
      "type": "VEC3"
    },
    {
      "bufferView": 21,
      "componentType": 5126,
      "count": 214,
      "type": "VEC2"
    },
    {
      "bufferView": 22,
      "componentType": 5123,
      "count": 228,
      "type": "SCALAR"
    },
    {
      "bufferView": 23,
      "componentType": 5126,
      "count": 184,
      "max": [-0.23241639137268066, 14.453076362609863, 3.0575172901153564],
      "min": [-37.65492630004883, -14.453076362609863, -1.3014965057373047],
      "type": "VEC3"
    },
    {
      "bufferView": 24,
      "componentType": 5126,
      "count": 184,
      "type": "VEC3"
    },
    {
      "bufferView": 25,
      "componentType": 5126,
      "count": 184,
      "type": "VEC2"
    },
    {
      "bufferView": 26,
      "componentType": 5123,
      "count": 216,
      "type": "SCALAR"
    },
    {
      "bufferView": 27,
      "componentType": 5126,
      "count": 24,
      "max": [5.464023113250732, 14.453076362609863, 2.601019859313965],
      "min": [-11.119741439819336, -14.453076362609863, -1.3014965057373047],
      "type": "VEC3"
    },
    {
      "bufferView": 28,
      "componentType": 5126,
      "count": 24,
      "type": "VEC3"
    },
    {
      "bufferView": 29,
      "componentType": 5126,
      "count": 24,
      "type": "VEC2"
    },
    {
      "bufferView": 30,
      "componentType": 5123,
      "count": 24,
      "type": "SCALAR"
    },
    {
      "bufferView": 31,
      "componentType": 5126,
      "count": 4,
      "max": [0.6491628885269165, 1, 0],
      "min": [-0.2840978503227234, -1, 0],
      "type": "VEC3"
    },
    {
      "bufferView": 32,
      "componentType": 5126,
      "count": 4,
      "type": "VEC3"
    },
    {
      "bufferView": 33,
      "componentType": 5126,
      "count": 4,
      "type": "VEC2"
    },
    {
      "bufferView": 34,
      "componentType": 5123,
      "count": 6,
      "type": "SCALAR"
    },
    {
      "bufferView": 36,
      "componentType": 5126,
      "count": 6,
      "max": [10.369343757629395, 20.89366340637207, 1.511183261871338],
      "min": [-18.035886764526367, 20.89366340637207, -14.139838218688965],
      "type": "VEC3"
    },
    {
      "bufferView": 37,
      "componentType": 5126,
      "count": 6,
      "type": "VEC3"
    },
    {
      "bufferView": 38,
      "componentType": 5126,
      "count": 6,
      "type": "VEC2"
    },
    {
      "bufferView": 39,
      "componentType": 5123,
      "count": 6,
      "type": "SCALAR"
    },
    {
      "bufferView": 40,
      "componentType": 5126,
      "count": 10,
      "max": [13.437829971313477, 27.983745574951172, 1.511183261871338],
      "min": [-2.5120487213134766, -5.893277830182342e-7, -13.482248306274414],
      "type": "VEC3"
    },
    {
      "bufferView": 41,
      "componentType": 5126,
      "count": 10,
      "type": "VEC3"
    },
    {
      "bufferView": 42,
      "componentType": 5126,
      "count": 10,
      "type": "VEC2"
    },
    {
      "bufferView": 43,
      "componentType": 5123,
      "count": 12,
      "type": "SCALAR"
    },
    {
      "bufferView": 44,
      "componentType": 5126,
      "count": 26,
      "max": [-1.52587890625e-5, 2.715698719024658, 6.572973251342773],
      "min": [-1.8935996294021606, -26.119016647338867, -6.613648891448975],
      "type": "VEC3"
    },
    {
      "bufferView": 45,
      "componentType": 5126,
      "count": 26,
      "type": "VEC3"
    },
    {
      "bufferView": 46,
      "componentType": 5126,
      "count": 26,
      "type": "VEC2"
    },
    {
      "bufferView": 47,
      "componentType": 5123,
      "count": 36,
      "type": "SCALAR"
    },
    {
      "bufferView": 48,
      "componentType": 5126,
      "count": 12,
      "max": [8.294847475553979e-8, 4.12075662612915, 13.107903480529785],
      "min": [-6.804732066711949e-8, -14.456663131713867, -1.0585415363311768],
      "type": "VEC3"
    },
    {
      "bufferView": 49,
      "componentType": 5126,
      "count": 12,
      "type": "VEC3"
    },
    {
      "bufferView": 50,
      "componentType": 5126,
      "count": 12,
      "type": "VEC2"
    },
    {
      "bufferView": 51,
      "componentType": 5123,
      "count": 12,
      "type": "SCALAR"
    },
    {
      "bufferView": 53,
      "componentType": 5126,
      "count": 6,
      "max": [9.46098518371582, 4.261300086975098, 11.135968208312988],
      "min": [9.46098518371582, -4.261300086975098, 0.2889559268951416],
      "type": "VEC3"
    },
    {
      "bufferView": 54,
      "componentType": 5126,
      "count": 6,
      "type": "VEC3"
    },
    {
      "bufferView": 55,
      "componentType": 5126,
      "count": 6,
      "type": "VEC2"
    }
  ],
  "bufferViews": [
    {
      "buffer": 0,
      "byteLength": 83376,
      "byteOffset": 0
    },
    {
      "buffer": 0,
      "byteLength": 83376,
      "byteOffset": 83376
    },
    {
      "buffer": 0,
      "byteLength": 55584,
      "byteOffset": 166752
    },
    {
      "buffer": 0,
      "byteLength": 13896,
      "byteOffset": 222336
    },
    {
      "buffer": 0,
      "byteLength": 59102,
      "byteOffset": 236232
    },
    {
      "buffer": 0,
      "byteLength": 46944,
      "byteOffset": 295336
    },
    {
      "buffer": 0,
      "byteLength": 46944,
      "byteOffset": 342280
    },
    {
      "buffer": 0,
      "byteLength": 31296,
      "byteOffset": 389224
    },
    {
      "buffer": 0,
      "byteLength": 9072,
      "byteOffset": 420520
    },
    {
      "buffer": 0,
      "byteLength": 21471,
      "byteOffset": 429592
    },
    {
      "buffer": 0,
      "byteLength": 1224,
      "byteOffset": 451064
    },
    {
      "buffer": 0,
      "byteLength": 1224,
      "byteOffset": 452288
    },
    {
      "buffer": 0,
      "byteLength": 816,
      "byteOffset": 453512
    },
    {
      "buffer": 0,
      "byteLength": 204,
      "byteOffset": 454328
    },
    {
      "buffer": 0,
      "byteLength": 127054,
      "byteOffset": 454532
    },
    {
      "buffer": 0,
      "byteLength": 9000,
      "byteOffset": 581588
    },
    {
      "buffer": 0,
      "byteLength": 9000,
      "byteOffset": 590588
    },
    {
      "buffer": 0,
      "byteLength": 6000,
      "byteOffset": 599588
    },
    {
      "buffer": 0,
      "byteLength": 1512,
      "byteOffset": 605588
    },
    {
      "buffer": 0,
      "byteLength": 2568,
      "byteOffset": 607100
    },
    {
      "buffer": 0,
      "byteLength": 2568,
      "byteOffset": 609668
    },
    {
      "buffer": 0,
      "byteLength": 1712,
      "byteOffset": 612236
    },
    {
      "buffer": 0,
      "byteLength": 456,
      "byteOffset": 613948
    },
    {
      "buffer": 0,
      "byteLength": 2208,
      "byteOffset": 614404
    },
    {
      "buffer": 0,
      "byteLength": 2208,
      "byteOffset": 616612
    },
    {
      "buffer": 0,
      "byteLength": 1472,
      "byteOffset": 618820
    },
    {
      "buffer": 0,
      "byteLength": 432,
      "byteOffset": 620292
    },
    {
      "buffer": 0,
      "byteLength": 288,
      "byteOffset": 620724
    },
    {
      "buffer": 0,
      "byteLength": 288,
      "byteOffset": 621012
    },
    {
      "buffer": 0,
      "byteLength": 192,
      "byteOffset": 621300
    },
    {
      "buffer": 0,
      "byteLength": 48,
      "byteOffset": 621492
    },
    {
      "buffer": 0,
      "byteLength": 48,
      "byteOffset": 621540
    },
    {
      "buffer": 0,
      "byteLength": 48,
      "byteOffset": 621588
    },
    {
      "buffer": 0,
      "byteLength": 32,
      "byteOffset": 621636
    },
    {
      "buffer": 0,
      "byteLength": 12,
      "byteOffset": 621668
    },
    {
      "buffer": 0,
      "byteLength": 60664,
      "byteOffset": 621680
    },
    {
      "buffer": 0,
      "byteLength": 72,
      "byteOffset": 682344
    },
    {
      "buffer": 0,
      "byteLength": 72,
      "byteOffset": 682416
    },
    {
      "buffer": 0,
      "byteLength": 48,
      "byteOffset": 682488
    },
    {
      "buffer": 0,
      "byteLength": 12,
      "byteOffset": 682536
    },
    {
      "buffer": 0,
      "byteLength": 120,
      "byteOffset": 682548
    },
    {
      "buffer": 0,
      "byteLength": 120,
      "byteOffset": 682668
    },
    {
      "buffer": 0,
      "byteLength": 80,
      "byteOffset": 682788
    },
    {
      "buffer": 0,
      "byteLength": 24,
      "byteOffset": 682868
    },
    {
      "buffer": 0,
      "byteLength": 312,
      "byteOffset": 682892
    },
    {
      "buffer": 0,
      "byteLength": 312,
      "byteOffset": 683204
    },
    {
      "buffer": 0,
      "byteLength": 208,
      "byteOffset": 683516
    },
    {
      "buffer": 0,
      "byteLength": 72,
      "byteOffset": 683724
    },
    {
      "buffer": 0,
      "byteLength": 144,
      "byteOffset": 683796
    },
    {
      "buffer": 0,
      "byteLength": 144,
      "byteOffset": 683940
    },
    {
      "buffer": 0,
      "byteLength": 96,
      "byteOffset": 684084
    },
    {
      "buffer": 0,
      "byteLength": 24,
      "byteOffset": 684180
    },
    {
      "buffer": 0,
      "byteLength": 2130,
      "byteOffset": 684204
    },
    {
      "buffer": 0,
      "byteLength": 72,
      "byteOffset": 686336
    },
    {
      "buffer": 0,
      "byteLength": 72,
      "byteOffset": 686408
    },
    {
      "buffer": 0,
      "byteLength": 48,
      "byteOffset": 686480
    }
  ],
  "buffers": [
    {
      "byteLength": 686528,
      "uri": "data:application/octet-stream;base64,"
    }
  ]
}
